# xmcd
#
# Track frame offsets: 
#        150
#        17690
#        40923
#        62163
#        84055
#        100943
#        122863
#        144555
#        161603
#        179588
#        198320
#        219030
#        236970
#        252915
#        267888
#        286105
#        305885
#
# Disc length: 4436 seconds
#
# Revision: 0
# Processed by: cddbd v1.5.2PL0 Copyright (c) Steve Scherf et al.
# Submitted via: ExactAudioCopy v0.99pb3
#
DISCID=f1115211
DTITLE=Marla Glen - The Best of
DYEAR=1998
DGENRE=Blues
TTITLE0=The Cost of Freedom
TTITLE1=Believer (Album Version)
TTITLE2=Personal
TTITLE3=Travel
TTITLE4=You Hurt Me
TTITLE5=Also Love You
TTITLE6=Love and Respect
TTITLE7=What About Our Kids
TTITLE8=Not Really Easy
TTITLE9=Promises
TTITLE10=Hot Love
TTITLE11=Our World
TTITLE12=Movin'
TTITLE13=It's A Man's Man's Man's World
TTITLE14=Ain't That a Shame
TTITLE15=Not Really Easy
TTITLE16=Center of a Star
EXTD=
EXTT0=
EXTT1=
EXTT2=
EXTT3=
EXTT4=
EXTT5=
EXTT6=
EXTT7=
EXTT8=
EXTT9=
EXTT10=
EXTT11=
EXTT12=
EXTT13=
EXTT14=
EXTT15=
EXTT16=
PLAYORDER=
